<mxfile host="app.diagrams.net" modified="2023-09-25T09:58:46.221Z" agent="Mozilla/5.0 (Windows NT 10.0; Win64; x64; rv:109.0) Gecko/20100101 Firefox/117.0" version="21.6.8" etag="axjAw-LRfy9XsKodgzHZ" type="github">
  <diagram name="第 1 页" id="6-zEqWDLABRJ-0VvF1WF">
    <mxGraphModel>
      <root>
        <mxCell id="0" />
        <mxCell id="1" parent="0" />
      </root>
    </mxGraphModel>
  </diagram>
</mxfile>
